<svg width="1280" height="527" viewBox="0 0 1280 527" fill="none" xmlns="http://www.w3.org/2000/svg">
<mask id="mask0_6_140" style="mask-type:alpha" maskUnits="userSpaceOnUse" x="0" y="0" width="1280" height="528">
<rect x="1280" y="5.34058e-05" width="527" height="1280" transform="rotate(90 1280 5.34058e-05)" fill="url(#paint0_linear_6_140)"/>
</mask>
<g mask="url(#mask0_6_140)">
<rect x="-192" y="-166" width="1472" height="1103" fill="url(#paint1_linear_6_140)"/>
<mask id="mask1_6_140" style="mask-type:alpha" maskUnits="userSpaceOnUse" x="-192" y="-166" width="1472" height="1103">
<rect x="-192" y="-166" width="1472" height="1103" fill="#E6E9F3"/>
</mask>
<g mask="url(#mask1_6_140)">
<path d="M404.608 260.272C491.578 330.635 609.675 314.714 676.984 231.67C744.294 148.625 733.433 11.3692 648.356 -40.4599C563.28 -92.289 437.979 -112.017 375.98 -11.8579C313.981 88.3013 317.638 189.909 404.608 260.272Z" fill="#E0436B"/>
<path d="M300.175 1.61269C318.29 16.2687 342.894 12.9459 356.921 -4.3598C370.947 -21.6655 368.691 -50.2624 350.97 -61.0569C333.248 -71.8514 307.145 -75.9557 294.224 -55.0844C281.303 -34.2131 282.06 -13.0433 300.175 1.61269Z" fill="#E0436B"/>
<path d="M725.215 262.656C743.33 277.312 767.934 273.989 781.961 256.684C795.987 239.378 793.731 210.781 776.01 199.986C758.288 189.192 732.185 185.088 719.264 205.959C706.343 226.83 707.1 248 725.215 262.656Z" fill="#7252A4"/>
<path d="M806.21 266.604C814.444 273.266 825.628 271.756 832.004 263.889C838.379 256.023 837.354 243.025 829.299 238.118C821.244 233.211 809.379 231.346 803.505 240.833C797.632 250.32 797.976 259.942 806.21 266.604Z" fill="#7252A4"/>
<path d="M574.64 656.945C640.899 717.57 735.289 704.265 802.733 633.32C870.177 562.376 856.653 451.377 778.439 405.502C700.225 359.627 613.98 361.259 550.347 429.127C486.714 496.996 508.381 596.32 574.64 656.945Z" fill="#F0C933"/>
<path d="M1059.6 412.173C1084.68 435.122 1120.41 430.086 1145.94 403.231C1171.47 376.376 1166.35 334.358 1136.75 316.993C1107.14 299.627 1074.49 300.244 1050.41 325.935C1026.32 351.626 1034.52 389.224 1059.6 412.173Z" fill="#453264"/>
<path d="M371.7 353.441C379.935 360.977 391.668 359.323 400.051 350.505C408.434 341.687 406.753 327.89 397.031 322.188C387.309 316.486 376.589 316.688 368.68 325.124C360.771 333.56 363.464 345.906 371.7 353.441Z" fill="#453264"/>
<path d="M1045.38 441.647C1039.72 451.262 1043.78 462.384 1054.15 468.743C1064.53 475.102 1077.69 470.591 1081.25 459.904C1084.81 449.218 1082.38 438.784 1072.48 432.808C1062.57 426.833 1051.05 432.032 1045.38 441.647Z" fill="#453264"/>
<path d="M1626.36 238.021C1705.93 302.394 1705.98 408.049 1653.77 498.516C1601.56 588.982 1512.95 672.259 1451.13 748.53C1389.31 824.801 1275.06 844.406 1190.4 775.909C1105.73 707.412 1092.55 584.958 1162.99 515.414C1233.43 445.87 1290.27 341.01 1365.63 265.4C1440.99 189.79 1546.8 173.648 1626.36 238.021Z" fill="#0F90D1"/>
<path d="M1226.79 217.975C1260.67 248.973 1308.94 242.17 1343.42 205.896C1377.91 169.622 1370.99 112.867 1331 89.4102C1291.01 65.9536 1246.91 66.7875 1214.37 101.489C1181.84 136.191 1192.92 186.977 1226.79 217.975Z" fill="#C4C8D4"/>
<path d="M51.513 832.566C144.353 917.512 276.608 898.869 371.108 799.465C465.607 700.062 446.658 544.535 337.067 480.256C227.476 415.977 106.632 418.262 17.4722 513.356C-71.6877 608.451 -41.3273 747.62 51.513 832.566Z" fill="#C4C8D4"/>
<path d="M1243.63 -334.442C1323.2 -270.069 1335.47 -153.442 1271.03 -73.9476C1206.6 5.54654 1121.54 91.5057 1068.39 176.067C1015.24 260.628 879.401 277.425 807.662 203.446C735.924 129.467 708.407 31.6003 780.258 -57.0487C852.11 -145.698 912.296 -219.954 982.9 -307.063C1053.5 -394.172 1164.06 -398.815 1243.63 -334.442Z" fill="#6759AE"/>
</g>
</g>
<rect x="1.4772e-07" y="-7.62939e-06" width="1280" height="527" fill="#26003F" fill-opacity="0.12"/>
<path fill-rule="evenodd" clip-rule="evenodd" d="M961.321 125.981C962.607 118.993 961.994 111.693 957.829 105.522C945.828 87.7391 922.383 106.711 922.765 118.963C923.147 131.214 937.443 154.597 944.894 152.524C947.865 151.698 952.432 146.883 956.089 140.265L966.947 167.201L987.731 155.201L961.321 125.981Z" fill="#F3B28D"/>
<path fill-rule="evenodd" clip-rule="evenodd" d="M965.327 129.231C961.235 116.119 964.099 103.918 959.969 99.3856C957.216 96.3643 953.958 95.3782 950.194 96.4272C944.541 90.5496 937.392 90.7892 928.746 97.146C915.777 106.681 910.642 117.318 921.604 127.87C924.961 125.932 928.313 122.378 935.118 121.223C937.277 120.856 939.731 122.169 942.479 125.16L945.011 123.698C945.116 118.205 946.675 115.308 949.688 115.009C952.7 114.71 954.758 117.019 955.861 121.938L962.633 130.787L965.327 129.231Z" fill="#191847"/>
<path fill-rule="evenodd" clip-rule="evenodd" d="M968.432 448.09C973.468 417.382 976.097 395.255 976.317 381.708C976.695 358.512 976.294 338.298 975.58 330.9C973.876 313.259 949.096 318.845 948.104 328.105C946.602 342.12 949.151 382.022 955.752 447.81L968.432 448.09Z" fill="#F3B28D"/>
<path fill-rule="evenodd" clip-rule="evenodd" d="M999.92 421.827L985.515 323.492C983.893 304.987 945.538 314.351 944.461 324.021C942.016 345.974 950.153 422.31 949.424 428.851L999.92 421.827Z" fill="#6F17BB"/>
<path fill-rule="evenodd" clip-rule="evenodd" d="M1075.29 356.924C1063.89 351.468 1023.83 334.09 1004.31 328.601C998.705 327.024 993.265 325.543 988.148 324.19C972.938 320.169 963.006 347.422 977.704 350.597C1014.31 358.505 1066.35 367.666 1070.79 368.596C1077.01 369.9 1082.46 360.352 1075.29 356.924Z" fill="#F3B28D"/>
<path fill-rule="evenodd" clip-rule="evenodd" d="M1071.49 353.681C1074.63 354.205 1076.85 354.838 1078.13 355.579C1079.69 356.481 1081.82 358.057 1084.52 360.307C1083.47 362.119 1074.07 378.401 1056.32 409.152C1051.39 407.999 1049.55 405.958 1050.79 403.03C1052.03 400.102 1053.04 397.656 1053.82 395.692L1056.81 367.145C1056.86 366.596 1057.36 366.197 1057.9 366.255C1057.91 366.256 1057.92 366.257 1057.93 366.258L1062.31 366.843C1064.96 364.993 1066.74 363.277 1067.65 361.694C1068.39 360.408 1068.9 358.332 1069.17 355.466L1069.17 355.466C1069.27 354.367 1070.25 353.559 1071.35 353.662C1071.39 353.667 1071.44 353.673 1071.49 353.681Z" fill="#E4E4E4"/>
<path fill-rule="evenodd" clip-rule="evenodd" d="M973.977 440.734C976.439 442.761 978.041 444.416 978.782 445.7C979.684 447.262 980.739 449.691 981.949 452.988C980.137 454.034 963.855 463.434 933.104 481.189C929.411 477.725 928.836 475.037 931.378 473.123C933.919 471.21 936.017 469.596 937.67 468.282L954.529 445.053C954.854 444.606 955.479 444.507 955.926 444.831C955.934 444.837 955.941 444.843 955.949 444.848L959.452 447.546C962.666 447.265 965.064 446.668 966.647 445.754C967.933 445.012 969.409 443.467 971.075 441.12L971.075 441.12C971.715 440.22 972.963 440.008 973.864 440.647C973.903 440.675 973.94 440.704 973.977 440.734Z" fill="#E4E4E4"/>
<path fill-rule="evenodd" clip-rule="evenodd" d="M999.256 320.886C1023.18 301.335 1039.17 288.179 1047.23 281.419C1070.2 262.149 1069.71 244.086 1047.97 216.612L1000.86 243.81C995.666 249.209 976.046 275.382 942.001 322.328C936.114 331.189 944.624 342.379 948.43 345.487C948.585 345.614 976.257 361.419 1031.45 392.902L1055.81 346.103L1000.85 323.821C999.051 322.623 998.518 321.645 999.256 320.886Z" fill="#8C1DEC"/>
<path fill-rule="evenodd" clip-rule="evenodd" d="M956.343 254.396L940.43 290.631C934.105 296.978 929.297 303.108 926.008 309.019C925.445 310.786 925.275 313.806 929.981 310.584C934.687 307.362 939.782 304.185 941.431 305.472C943.08 306.76 941.26 310.489 943.942 311.963C945.73 312.945 947.869 306.658 950.359 293.104L971.165 265.966L956.343 254.396ZM1062.81 193.86L1044.76 204.38C1076.76 234.001 1093.84 249.658 1096 251.351C1100.88 255.161 1101 265.172 1101.54 270.284C1108.97 269.517 1102.69 260.093 1112.14 259.257C1120.77 258.495 1129.25 261.241 1134.31 251.856C1134.93 250.703 1134.69 247.847 1131.12 247.57C1122.23 246.88 1108.63 244.534 1105.94 242.734C1102.26 240.278 1087.89 223.987 1062.81 193.86Z" fill="#F3B28D"/>
<path fill-rule="evenodd" clip-rule="evenodd" d="M967.537 147.613L959.307 150.652C945.38 190.696 960.59 243.396 940.635 287.487L954.699 292.915C1009.56 251.487 991.73 186.788 967.537 147.613Z" fill="#1CCB7A"/>
<path fill-rule="evenodd" clip-rule="evenodd" d="M1054.52 222.875C1024.49 240.211 1002.4 252.963 988.255 261.131C985.227 262.879 983.274 258.177 982.438 255.719C972.789 227.341 976.662 188.51 955.736 152.266L973.118 138.234C1003.61 154.532 1027.15 182.679 1054.52 222.875Z" fill="#DDE3E9"/>
<path fill-rule="evenodd" clip-rule="evenodd" d="M1011.41 149.447C1013.73 147.047 1014.85 143.917 1014.78 140.057C1014.49 123.418 1007.96 117.935 999.18 119.964C990.397 121.993 986.452 130.536 974.558 137.403C973.911 137.777 973.341 138.159 972.85 138.551L967.064 142.347C983.488 210.438 1001.16 251.988 1020.09 266.998L1072.25 236.887C1079.5 242.309 1085.95 246.664 1091.62 249.953L1105.83 241.748C1082.2 197.733 1050.73 166.966 1011.41 149.447Z" fill="#1DEC8C"/>
<path fill-rule="evenodd" clip-rule="evenodd" d="M1043.64 213.564C1049.92 228.235 1053.01 239.734 1052.89 248.062L1072.25 236.887C1063.79 230.564 1054.25 222.789 1043.64 213.564V213.564Z" fill="black" fill-opacity="0.1"/>
<defs>
<linearGradient id="paint0_linear_6_140" x1="1280" y1="5.34058e-05" x2="1280" y2="1280" gradientUnits="userSpaceOnUse">
<stop stop-color="#3B30FD"/>
<stop offset="1" stop-color="#A013F9"/>
</linearGradient>
<linearGradient id="paint1_linear_6_140" x1="544" y1="-166" x2="544" y2="937" gradientUnits="userSpaceOnUse">
<stop stop-color="#3B30FD" stop-opacity="0.28"/>
<stop offset="1" stop-color="#A013F9"/>
</linearGradient>
</defs>
</svg>
